<svg width="32" height="32" viewBox="0 0 32 32" fill="none" xmlns="http://www.w3.org/2000/svg">
<path d="M31.5211 19.8706C29.3839 28.442 20.7014 33.6585 12.128 31.521C3.55811 29.384 -1.65895 20.7021 0.479281 12.1312C2.61551 3.55876 11.2979 -1.65819 19.8688 0.478793C28.4418 2.61577 33.6583 11.2987 31.5211 19.8706Z" fill="#F7931A"/>
<path d="M22.9582 13.4424C23.2911 11.2358 21.5967 10.0496 19.2799 9.25825L20.0314 6.26913L18.1964 5.81569L17.4648 8.72603C16.9824 8.60684 16.4869 8.49439 15.9946 8.38297L16.7315 5.45345L14.8976 5L14.1455 7.98808C13.7462 7.8979 13.3542 7.80878 12.9737 7.71498L12.9758 7.70565L10.4452 7.07911L9.95709 9.02245C9.95709 9.02245 11.3186 9.33183 11.2898 9.35101C12.033 9.53498 12.1673 10.0226 12.1448 10.4092L11.2888 13.8145C11.34 13.8274 11.4064 13.8461 11.4795 13.8751C11.4184 13.8601 11.353 13.8435 11.2856 13.8274L10.0856 18.5977C9.9947 18.8216 9.76423 19.1574 9.24473 19.0299C9.26302 19.0563 7.91096 18.6998 7.91096 18.6998L7 20.7825L9.38793 21.3728C9.83217 21.4832 10.2675 21.5987 10.6961 21.7075L9.9367 24.7309L11.7696 25.1843L12.5217 22.1931C13.0223 22.3279 13.5084 22.4522 13.984 22.5694L13.2345 25.5466L15.0695 26L15.8289 22.9824C18.9579 23.5695 21.3108 23.3327 22.3012 20.5265C23.0993 18.2671 22.2615 16.9637 20.6152 16.1138C21.8141 15.8397 22.7172 15.0577 22.9582 13.4424ZM18.7656 19.2719C18.1985 21.5314 14.3619 20.3099 13.118 20.0036L14.1256 15.9983C15.3695 16.3061 19.3583 16.9155 18.7656 19.2719ZM19.3332 13.4097C18.8158 15.465 15.6225 14.4208 14.5866 14.1648L15.5002 10.5321C16.536 10.7881 19.872 11.2658 19.3332 13.4097Z" fill="white"/>
</svg>
