<svg width="19" height="18" viewBox="0 0 19 18" fill="none" xmlns="http://www.w3.org/2000/svg">
<path fill-rule="evenodd" clip-rule="evenodd" d="M5.96909 4.44463C5.99847 4.75378 5.7817 5.0292 5.48491 5.0598C4.59679 5.15139 4.11785 5.34825 3.7783 5.7042C3.47298 6.02428 3.28993 6.46296 3.1924 7.2234C3.09285 7.99962 3.09172 9.02269 3.09172 10.4617C3.09172 11.9008 3.09285 12.9238 3.1924 13.7001C3.28993 14.4605 3.47298 14.8992 3.7783 15.2193C4.08315 15.5388 4.50023 15.7301 5.22398 15.8321C5.96363 15.9363 6.93872 15.9375 8.31171 15.9375H11.1917C12.5648 15.9375 13.5398 15.9363 14.2794 15.8321C15.0032 15.7301 15.4203 15.5388 15.7251 15.2193C16.0305 14.8992 16.2135 14.4605 16.3111 13.7001C16.4106 12.9238 16.4117 11.9008 16.4117 10.4617C16.4117 9.02269 16.4106 7.99962 16.3111 7.2234C16.2135 6.46296 16.0305 6.02428 15.7251 5.7042C15.3856 5.34825 14.9066 5.15139 14.0185 5.0598C13.7217 5.0292 13.505 4.75378 13.5344 4.44463C13.5638 4.13548 13.8281 3.90967 14.1249 3.94028C15.1089 4.04175 15.8902 4.28117 16.4913 4.91124C17.0295 5.47546 17.2682 6.19054 17.3816 7.07442C17.4917 7.93384 17.4917 9.03207 17.4917 10.4196V10.5039C17.4917 11.8914 17.4917 12.9897 17.3816 13.849C17.2682 14.733 17.0295 15.448 16.4913 16.0122C15.9526 16.5769 15.2691 16.8279 14.4243 16.9469C13.6038 17.0625 12.5555 17.0625 11.2325 17.0625H8.27089C6.9479 17.0625 5.89963 17.0625 5.07917 16.9469C4.2344 16.8279 3.55088 16.5769 3.0122 16.0122C2.47399 15.448 2.23527 14.733 2.12192 13.849C2.0117 12.9897 2.0117 11.8914 2.01172 10.5039V10.4196C2.0117 9.03214 2.0117 7.93384 2.12192 7.07442C2.23527 6.19054 2.47399 5.47546 3.0122 4.91124C3.61324 4.28117 4.39448 4.04175 5.37853 3.94028C5.67531 3.90967 5.93972 4.13548 5.96909 4.44463Z" fill="white"/>
<path fill-rule="evenodd" clip-rule="evenodd" d="M8.73591 4.23052C8.59753 4.04697 8.45194 3.85414 8.33883 3.73294C8.13097 3.51017 7.78911 3.50512 7.57525 3.72164C7.36139 3.93817 7.35653 4.29429 7.5644 4.51706C7.62826 4.5855 7.73309 4.72186 7.8866 4.92543C7.89776 4.94018 7.90899 4.95516 7.92051 4.97037C8.05731 5.15198 8.21787 5.36503 8.38325 5.56837C8.56052 5.78629 8.75895 6.01263 8.95731 6.18859C9.05667 6.27678 9.1687 6.36376 9.28923 6.43094C9.40551 6.49573 9.56564 6.5625 9.75161 6.5625C9.93759 6.5625 10.0977 6.49573 10.214 6.43094C10.3345 6.36376 10.4466 6.27678 10.5459 6.18859C10.7443 6.01263 10.9427 5.78629 11.12 5.56837C11.2854 5.36503 11.4459 5.15198 11.5828 4.97036C11.5942 4.95516 11.6055 4.94017 11.6166 4.92543C11.7701 4.72186 11.875 4.5855 11.9388 4.51706C12.1467 4.29429 12.1419 3.93817 11.928 3.72164C11.7141 3.50512 11.3723 3.51017 11.1644 3.73294C11.0513 3.85414 10.9057 4.04697 10.7673 4.23053C10.7567 4.24468 10.7459 4.25891 10.7351 4.27324C10.5962 4.45753 10.4477 4.65461 10.296 4.84108C10.2945 4.84288 10.2931 4.84466 10.2916 4.84645V1.5C10.2916 1.18934 10.0498 0.9375 9.75161 0.9375C9.45339 0.9375 9.21161 1.18934 9.21161 1.5V4.84645C9.21017 4.84466 9.20873 4.84288 9.20729 4.84108C9.05559 4.65461 8.90705 4.45753 8.76817 4.27324C8.75737 4.25891 8.74664 4.24468 8.73591 4.23052Z" fill="white"/>
<path fill-rule="evenodd" clip-rule="evenodd" d="M15.1584 10.5C15.1584 10.0858 14.8361 9.75 14.4384 9.75H14.4319C14.0343 9.75 13.7119 10.0858 13.7119 10.5C13.7119 10.9142 14.0343 11.25 14.4319 11.25H14.4384C14.8361 11.25 15.1584 10.9142 15.1584 10.5Z" fill="white"/>
<path fill-rule="evenodd" clip-rule="evenodd" d="M5.79803 10.5C5.79803 10.0858 5.47568 9.75 5.07803 9.75H5.07156C4.67392 9.75 4.35156 10.0858 4.35156 10.5C4.35156 10.9142 4.67392 11.25 5.07156 11.25H5.07803C5.47568 11.25 5.79803 10.9142 5.79803 10.5Z" fill="white"/>
<path fill-rule="evenodd" clip-rule="evenodd" d="M9.75161 9.1875C9.05573 9.1875 8.49161 9.77513 8.49161 10.5C8.49161 11.2249 9.05573 11.8125 9.75161 11.8125C10.4475 11.8125 11.0116 11.2249 11.0116 10.5C11.0116 9.77513 10.4475 9.1875 9.75161 9.1875ZM7.41162 10.5C7.41162 9.15383 8.45929 8.0625 9.75161 8.0625C11.0439 8.0625 12.0916 9.15383 12.0916 10.5C12.0916 11.8462 11.0439 12.9375 9.75161 12.9375C8.45929 12.9375 7.41162 11.8462 7.41162 10.5Z" fill="white"/>
</svg>
