<svg width="19" height="18" viewBox="0 0 19 18" fill="none" xmlns="http://www.w3.org/2000/svg">
<path fill-rule="evenodd" clip-rule="evenodd" d="M8.63751 2.4375H10.8659C12.1901 2.43749 13.2299 2.43749 14.0497 2.53395C14.8865 2.63241 15.565 2.83772 16.129 3.30172C16.2979 3.44062 16.4544 3.59404 16.5968 3.76035C17.0764 4.32076 17.2906 5.00002 17.3926 5.83339C17.4917 6.64295 17.4917 7.6674 17.4917 8.96048V9.0396C17.4917 10.3326 17.4917 11.357 17.3926 12.1667C17.2906 13 17.0764 13.6793 16.5968 14.2397C16.4544 14.406 16.2979 14.5594 16.129 14.6983C15.565 15.1623 14.8865 15.3676 14.0497 15.4661C13.2299 15.5625 12.1901 15.5625 10.866 15.5625H8.63751C7.3134 15.5625 6.27352 15.5625 5.45374 15.4661C4.61698 15.3676 3.93844 15.1623 3.37441 14.6983C3.20556 14.5594 3.04901 14.4059 2.90666 14.2397C2.42702 13.6793 2.21283 13 2.11081 12.1667C2.0117 11.357 2.01171 10.3325 2.01172 9.03953V8.96048C2.01171 7.66748 2.0117 6.64295 2.11081 5.83339C2.21283 5.00002 2.42702 4.32076 2.90666 3.76035C3.04901 3.59404 3.20556 3.44062 3.37441 3.30172C3.93844 2.83772 4.61698 2.63241 5.45374 2.53395C6.27352 2.43749 7.3134 2.43749 8.63751 2.4375ZM5.57496 3.65184C4.83279 3.73917 4.3831 3.90544 4.04377 4.1846C3.92364 4.28341 3.81294 4.392 3.71281 4.509C3.43443 4.83425 3.26962 5.26109 3.18214 5.97569C3.09275 6.70586 3.09172 7.65855 3.09172 9C3.09172 10.3415 3.09275 11.2942 3.18214 12.0243C3.26962 12.7389 3.43443 13.1657 3.71281 13.491C3.81294 13.608 3.92364 13.7166 4.04377 13.8154C4.3831 14.0945 4.83279 14.2608 5.57496 14.3482C6.32706 14.4367 7.30596 14.4375 8.67171 14.4375H10.8317C12.1975 14.4375 13.1764 14.4367 13.9285 14.3482C14.6707 14.2608 15.1203 14.0945 15.4597 13.8154C15.5798 13.7166 15.6905 13.608 15.7906 13.491C16.069 13.1657 16.2338 12.7389 16.3213 12.0243C16.4107 11.2942 16.4117 10.3415 16.4117 9C16.4117 7.65855 16.4107 6.70586 16.3213 5.97569C16.2338 5.26109 16.069 4.83425 15.7906 4.509C15.6905 4.392 15.5798 4.28342 15.4597 4.1846C15.1203 3.90544 14.6707 3.73917 13.9285 3.65184C13.1764 3.56334 12.1975 3.5625 10.8317 3.5625H8.67171C7.30596 3.5625 6.32706 3.56334 5.57496 3.65184Z" fill="black"/>
<path fill-rule="evenodd" clip-rule="evenodd" d="M7.77197 12C7.77197 11.6894 8.01375 11.4375 8.31197 11.4375H9.39197C9.6902 11.4375 9.93197 11.6894 9.93197 12C9.93197 12.3106 9.6902 12.5625 9.39197 12.5625H8.31197C8.01375 12.5625 7.77197 12.3106 7.77197 12Z" fill="black"/>
<path fill-rule="evenodd" clip-rule="evenodd" d="M11.0117 12C11.0117 11.6894 11.2535 11.4375 11.5517 11.4375H14.0717C14.3699 11.4375 14.6117 11.6894 14.6117 12C14.6117 12.3106 14.3699 12.5625 14.0717 12.5625H11.5517C11.2535 12.5625 11.0117 12.3106 11.0117 12Z" fill="black"/>
<path fill-rule="evenodd" clip-rule="evenodd" d="M16.9513 7.3125H2.55127V6.1875H16.9513V7.3125Z" fill="black"/>
</svg>
