<svg width="256" height="256" viewBox="0 0 256 256" fill="none" xmlns="http://www.w3.org/2000/svg">
<rect width="256" height="256" rx="32" fill="#5C63E7"/>
<path d="M129.401 223C115.454 223 102.943 221.361 91.9285 218.051C80.9295 214.757 71.7179 210.804 64.37 206.16C56.0596 201.018 51.8892 194.189 51.8892 185.641C51.8892 180.017 53.9668 175.196 58.1525 171.179C62.3077 167.162 67.3336 165.154 73.215 165.154C77.6299 165.154 82.6558 166.76 88.2928 169.926C94.6477 173.573 101.385 176.626 108.488 179.085C116.096 181.606 124.038 182.837 132.014 182.732C141.317 182.732 148.222 181.206 152.774 178.169C157.296 175.116 159.572 171.147 159.572 166.278C159.63 164.342 159.201 162.424 158.33 160.717C157.458 159.01 156.174 157.576 154.607 156.557C151.292 154.243 144.388 152.46 133.862 151.254L114.4 149.053C95.0449 146.868 80.5477 141.115 70.8624 131.844C61.1925 122.572 56.3651 110.232 56.3651 94.8542C56.3651 77.2753 62.7201 63.3601 75.4606 53.1084C88.2011 42.8406 106.349 37.7309 129.844 37.7309C139.896 37.7309 149.505 38.7111 158.671 40.6553C167.382 42.4342 175.839 45.3884 183.831 49.4448C193.883 54.5706 198.909 61.3033 198.909 69.5946C198.909 75.2186 197.076 79.9909 193.409 83.8794C189.743 87.7841 184.824 89.7444 178.698 89.7444C176.743 89.7444 174.665 89.4231 172.435 88.8125C169.534 87.9155 166.712 86.7542 164.002 85.3417C152.648 80.1432 140.379 77.5206 127.996 77.6449C120.175 77.6449 114.461 78.9304 110.902 81.5013C107.358 84.0562 105.57 87.4145 105.57 91.5762C105.57 95.738 107.159 98.9677 110.367 101.282C113.545 103.611 120.144 105.267 130.196 106.231L149.673 108.416C170.739 110.858 185.848 116.723 195.044 125.995C204.24 135.282 208.823 147.366 208.823 162.261C208.823 180.579 201.888 195.282 188.063 206.401C174.161 217.44 154.638 223 129.401 223Z" fill="white"/>
<path fill-rule="evenodd" clip-rule="evenodd" d="M163.275 104.051C164.589 104.337 166.081 104.272 167.352 103.873C167.789 103.735 176.521 99.9155 186.756 95.3839C200.805 89.1636 205.476 87.0547 205.818 86.7776C206.556 86.18 207.297 85.363 207.736 84.6646C208.237 83.8653 208.875 82.0702 208.968 81.1954C209.052 80.4008 208.966 79.0795 208.774 78.2281C208.579 77.3604 193.195 39.6803 192.53 38.4419C190.972 35.5369 188.021 33.8083 184.976 34.017C182.977 34.1539 181.081 35.0984 179.785 36.6029C179.066 37.438 178.649 38.2102 178.2 39.5428C177.784 40.7772 170.384 51.0045 170.433 52.1407C170.502 53.7122 177.764 44.2483 181.869 54.2956C184.034 59.593 185.794 63.955 185.781 63.989C185.768 64.0229 178.467 60.9663 169.556 57.1964C151.808 49.6881 152.912 50.1199 151.399 50.0953C148.855 50.054 146.479 51.2937 144.781 53.5493C144.117 54.4306 143.291 56.329 143.082 57.4521C142.687 59.5776 143.029 61.7948 144.02 63.5196C144.489 64.3377 145.397 65.3927 146.148 65.9927C146.719 66.4492 146.817 66.494 154.422 69.7779C158.654 71.6057 166.026 74.7604 170.804 76.7884L179.491 80.4756L170.433 84.4856C164.807 86.9766 163.047 78.672 162.724 78.9018C161.133 80.0335 158.269 91.2831 157.586 93.087C156.82 95.1068 156.804 97.0595 157.538 98.9836C158.521 101.564 160.7 103.489 163.275 104.051Z" fill="white"/>
<path fill-rule="evenodd" clip-rule="evenodd" d="M95.5215 154.722C94.2586 154.245 92.773 154.09 91.4605 154.299C91.0097 154.371 81.8547 156.871 71.1159 159.855C56.3754 163.952 51.4691 165.354 51.0935 165.578C50.2835 166.061 49.4404 166.762 48.9133 167.389C48.3099 168.106 47.4394 169.79 47.2309 170.643C47.0415 171.417 46.9507 172.738 47.027 173.609C47.1048 174.497 57.3129 214.066 57.8057 215.389C58.9619 218.495 61.6533 220.639 64.6958 220.88C66.6934 221.038 68.6967 220.381 70.1807 219.082C71.0043 218.36 71.5195 217.657 72.1419 216.403C72.7185 215.242 76.2189 209.722 76.3217 208.59C76.4637 207.024 73.2012 211.808 70.4758 201.257C69.0388 195.694 67.8774 191.116 67.8948 191.084C67.9123 191.053 74.7345 195.152 83.0553 200.193C99.6274 210.233 98.5917 209.643 100.086 209.89C102.6 210.304 105.117 209.426 107.1 207.442C107.875 206.667 108.946 204.908 109.303 203.827C109.977 201.78 109.934 199.535 109.183 197.681C108.827 196.802 108.069 195.624 107.405 194.92C106.901 194.384 106.81 194.325 99.7181 189.957C95.7709 187.526 88.892 183.32 84.4315 180.61L76.3217 175.684L85.8248 173.043C91.7283 171.403 93.7148 177.892 94.0652 177.712C95.7909 176.825 98.7756 168.099 99.6929 166.413C100.72 164.525 100.996 162.594 100.527 160.581C99.8973 157.882 97.9959 155.656 95.5215 154.722Z" fill="white"/>
</svg>
