<?xml version="1.0" encoding="utf-8"?>
<!-- Generator: Adobe Illustrator 24.1.0, SVG Export Plug-In . SVG Version: 6.00 Build 0)  -->
<svg version="1.1" id="chat-icon-bubbles" xmlns="http://www.w3.org/2000/svg" xmlns:xlink="http://www.w3.org/1999/xlink" x="0px"
	 y="0px" viewBox="0 0 576 512" style="enable-background:new 0 0 576 512;" xml:space="preserve">
<style type="text/css">
	.st0{opacity:0.9;fill:#FFFFFF;enable-background:new    ;}
	.st1{opacity:0.4;fill:#FFFFFF;enable-background:new    ;}
</style>
<path class="st0" d="M208,352c-41,0-79.1-9.3-111.3-25C74.9,339.7,44.6,352,8,352c-3.2,0-6.1-1.9-7.3-4.8c-1.3-2.9-0.7-6.4,1.5-8.7
	c0.3-0.3,22.4-24.3,35.8-54.5c-23.9-26.1-38-57.7-38-92C0,103.6,93.1,32,208,32s208,71.6,208,160S322.9,352,208,352z"/>
<path class="st1" d="M576,320c0,34.3-14.1,66-38,92c13.4,30.3,35.5,54.2,35.8,54.5c2.2,2.3,2.8,5.8,1.5,8.7
	c-1.2,2.9-4.1,4.8-7.3,4.8c-36.6,0-66.9-12.3-88.7-25c-32.2,15.8-70.3,25-111.3,25c-86.2,0-160.2-40.4-191.7-97.9
	c10.5,1.2,21.1,1.8,31.7,1.9c132.3,0,240-86.1,240-192c0-6.7-0.4-13.4-1.3-20.1C522.5,195.8,576,253.1,576,320z"/>
</svg>
