<svg width="20" height="20" viewBox="0 0 20 20" fill="none" xmlns="http://www.w3.org/2000/svg">
<g clip-path="url(#clip0_321_5306)">
<path d="M10.0033 4.86548C7.16744 4.86548 4.87161 7.16381 4.87161 9.99714C4.87161 12.833 7.16994 15.1288 10.0033 15.1288C12.8391 15.1288 15.1349 12.8305 15.1349 9.99714C15.1349 7.16131 12.8366 4.86548 10.0033 4.86548ZM10.0033 13.328C8.16244 13.328 6.67244 11.8371 6.67244 9.99714C6.67244 8.15714 8.16327 6.66631 10.0033 6.66631C11.8433 6.66631 13.3341 8.15714 13.3341 9.99714C13.3349 11.8371 11.8441 13.328 10.0033 13.328Z" fill="white"/>
<path d="M14.1235 0.0637988C12.2835 -0.0220346 7.72602 -0.0178679 5.88436 0.0637988C4.26602 0.139632 2.83852 0.530465 1.68769 1.6813C-0.235644 3.60463 0.0101894 6.1963 0.0101894 9.99713C0.0101894 13.8871 -0.206477 16.4188 1.68769 18.313C3.61852 20.243 6.24769 19.9905 10.0035 19.9905C13.8569 19.9905 15.1869 19.993 16.5494 19.4655C18.4019 18.7463 19.8002 17.0905 19.9369 14.1163C20.0235 12.2755 20.0185 7.7188 19.9369 5.87713C19.7719 2.3663 17.8877 0.237132 14.1235 0.0637988ZM17.036 17.0405C15.7752 18.3013 14.026 18.1888 9.97936 18.1888C5.81269 18.1888 4.14186 18.2505 2.92269 17.028C1.51852 15.6305 1.77269 13.3863 1.77269 9.9838C1.77269 5.37963 1.30019 2.0638 5.92102 1.82713C6.98269 1.78963 7.29519 1.77713 9.96769 1.77713L10.0052 1.80213C14.446 1.80213 17.9302 1.33713 18.1394 5.95713C18.1869 7.0113 18.1977 7.32797 18.1977 9.9963C18.1969 14.1146 18.2752 15.7955 17.036 17.0405Z" fill="white"/>
<path d="M15.3385 5.86213C16.0008 5.86213 16.5377 5.32525 16.5377 4.66297C16.5377 4.00068 16.0008 3.4638 15.3385 3.4638C14.6762 3.4638 14.1394 4.00068 14.1394 4.66297C14.1394 5.32525 14.6762 5.86213 15.3385 5.86213Z" fill="white"/>
</g>
<defs>
<clipPath id="clip0_321_5306">
<rect width="20" height="20" fill="white"/>
</clipPath>
</defs>
</svg>
