<svg width="20" height="20" viewBox="0 0 20 20" fill="none" xmlns="http://www.w3.org/2000/svg">
<g clip-path="url(#clip0_321_5309)">
<path d="M19.9946 19.9999V19.999H19.9996V12.664C19.9996 9.07569 19.2271 6.31152 15.0321 6.31152C13.0154 6.31152 11.6621 7.41819 11.1096 8.46736H11.0512V6.64652H7.07373V19.999H11.2154V13.3874C11.2154 11.6465 11.5454 9.96319 13.7012 9.96319C15.8254 9.96319 15.8571 11.9499 15.8571 13.499V19.9999H19.9946Z" fill="white"/>
<path d="M0.330566 6.64746H4.47723V20H0.330566V6.64746Z" fill="white"/>
<path d="M2.40167 0C1.07583 0 0 1.07583 0 2.40167C0 3.7275 1.07583 4.82583 2.40167 4.82583C3.7275 4.82583 4.80333 3.7275 4.80333 2.40167C4.8025 1.07583 3.72667 0 2.40167 0V0Z" fill="white"/>
</g>
<defs>
<clipPath id="clip0_321_5309">
<rect width="20" height="20" fill="white"/>
</clipPath>
</defs>
</svg>
