<svg width="146" height="22" viewBox="0 0 146 22" fill="none" xmlns="http://www.w3.org/2000/svg">
<g clip-path="url(#clip0_321_5158)">
<path d="M34.7324 21.8433C33.3774 21.8433 32.4859 21.164 32.0563 19.8069L29.7197 12.5361H29.6535L27.2831 19.8069C26.8098 21.1654 25.9394 21.8419 24.676 21.8419C23.3887 21.8419 22.4972 21.164 21.9999 19.8069L18.169 9.30774C18.0671 9.01408 18.0101 8.70737 18 8.39748C18 7.79248 18.2211 7.29065 18.6619 6.89328C19.1027 6.49592 19.6479 6.29792 20.3042 6.29792C21.4323 6.29792 22.1887 6.9139 22.5732 8.14728L24.945 15.8237H25.0112L27.3479 8.17748C27.7535 6.92353 28.5323 6.29655 29.6845 6.29655C30.8127 6.29655 31.5816 6.92353 31.9873 8.17748L34.4591 15.8237H34.5267L36.7958 8.14728C37.1803 6.9139 37.9352 6.29792 39.0662 6.29792C39.7211 6.29792 40.262 6.49592 40.6916 6.89328C41.1211 7.29065 41.3352 7.79111 41.3352 8.39748C41.3352 8.64911 41.2789 8.95157 41.1662 9.30774L37.3408 19.8069C36.845 21.164 35.9746 21.8419 34.7324 21.8419V21.8433ZM47.1296 4.95321C46.3859 4.95321 45.7521 4.71259 45.2323 4.23135C44.9826 4.00954 44.7839 3.73839 44.6496 3.43591C44.5153 3.13343 44.4485 2.80653 44.4535 2.4769C44.4535 1.78805 44.7126 1.20231 45.2323 0.721074C45.742 0.245021 46.4243 -0.0141095 47.1296 0.000593169C47.8761 0.000593169 48.5084 0.242587 49.0281 0.721074C49.5478 1.20231 49.807 1.78667 49.807 2.4769C49.807 3.16438 49.5451 3.75149 49.0281 4.23135C48.507 4.71259 47.8746 4.95321 47.1296 4.95321ZM47.1296 21.8433C46.431 21.8433 45.8605 21.6384 45.4183 21.2314C44.9774 20.823 44.7563 20.2552 44.7563 19.5223V8.61884C44.7563 7.88738 44.9774 7.31815 45.4183 6.90978C45.8591 6.50279 46.4281 6.30067 47.1296 6.30067C47.8084 6.30067 48.3718 6.50416 48.8239 6.90978C49.2747 7.31815 49.5 7.88601 49.5 8.61884V19.5237C49.5 20.2552 49.2747 20.8244 48.8239 21.2327C48.3704 21.6384 47.8084 21.8433 47.1296 21.8433ZM59.3563 21.8433C57.4155 21.8433 56.0535 21.4307 55.2746 20.6058C54.4957 19.7808 54.1057 18.5007 54.1057 16.7669V9.93611C54.1057 9.81094 54.0267 9.74911 53.869 9.74911H53.7338C53.1239 9.74911 52.6549 9.59784 52.3282 9.29538C52 8.99148 51.8352 8.59957 51.8352 8.11975C51.8352 7.63848 52 7.24665 52.3282 6.94416C52.6549 6.64166 53.1239 6.48904 53.7338 6.48904H53.869C54.0267 6.48904 54.1057 6.42717 54.1057 6.30205V4.04299C54.1057 3.3115 54.3253 2.74227 54.7676 2.3339C55.2084 1.92692 55.776 1.7248 56.4789 1.7248C57.1549 1.7248 57.7141 1.92829 58.1549 2.3339C58.5958 2.7409 58.8168 3.31013 58.8168 4.04299V6.30067C58.8168 6.42442 58.883 6.48767 59.0197 6.48767H60.3056C60.9141 6.48767 61.383 6.63892 61.7113 6.94141C62.0394 7.24389 62.2042 7.63575 62.2042 8.11701C62.2042 8.59821 62.0394 8.98874 61.7113 9.29257C61.383 9.59511 60.9169 9.7463 60.3056 9.7463H59.0197C58.883 9.7463 58.8168 9.80957 58.8168 9.93467V16.6404C58.8168 17.101 58.9112 17.4338 59.1042 17.6442C59.2958 17.8531 59.6183 17.9782 60.069 18.0195C60.8127 18.1033 61.3493 18.3274 61.6775 18.6932C62.0042 19.0603 62.169 19.4824 62.169 19.9623C62.169 20.5054 61.9605 20.9536 61.5409 21.3097C61.1225 21.6645 60.4634 21.8433 59.5591 21.8433H59.3563ZM71.6859 22C69.9465 22 68.4747 21.6356 67.2662 20.9028C66.0577 20.1713 65.2042 19.0974 64.7084 17.6743C64.5166 17.1731 64.3806 16.6531 64.3028 16.1234C64.2044 15.4435 64.1587 14.7572 64.1662 14.0706C64.1662 13.2772 64.2113 12.5925 64.3028 12.0178C64.3929 11.443 64.5282 10.926 64.7084 10.4654C65.2042 9.04511 66.0577 7.96984 67.2662 7.23702C68.4732 6.50554 69.9465 6.14118 71.6859 6.14118C72.8366 6.14118 73.8549 6.29792 74.7338 6.61004C75.6141 6.92353 76.3141 7.32227 76.8324 7.80074C77.1704 8.11284 77.4141 8.40711 77.5619 8.67938C77.707 8.95021 77.7817 9.24311 77.7817 9.55657C77.7817 10.0997 77.5845 10.5479 77.1901 10.904C76.7957 11.2588 76.3028 11.4375 75.7169 11.4375C75.3549 11.4375 75.0268 11.3591 74.7338 11.201C74.3938 11.0105 74.0761 10.7846 73.7859 10.5273C73.2648 10.0667 72.5887 9.83984 71.7521 9.83984C70.4662 9.83984 69.6394 10.3926 69.2803 11.5008C69.1676 11.7923 69.0887 12.1388 69.0436 12.5361C68.9986 12.9321 68.9775 13.445 68.9775 14.072C68.9775 14.699 69 15.2132 69.0436 15.6092C69.0887 16.0052 69.1676 16.3502 69.2803 16.6432C69.6408 17.7513 70.4662 18.3069 71.7521 18.3069C72.5873 18.3069 73.2661 18.0759 73.7859 17.6166C74.1239 17.3252 74.4409 17.101 74.7338 16.9429C75.0268 16.7862 75.3549 16.7078 75.7169 16.7078C76.3042 16.7078 76.7957 16.8852 77.1901 17.2412C77.5845 17.596 77.7817 18.0456 77.7817 18.5887C77.7817 18.9008 77.7098 19.1937 77.5619 19.466C77.4141 19.7368 77.1718 20.0297 76.8338 20.3432C76.3127 20.8244 75.6141 21.2218 74.7352 21.5339C73.8535 21.846 72.838 22 71.6859 22ZM93.3664 21.8433C92.687 21.8433 92.1224 21.6384 91.6718 21.2314C91.2213 20.823 90.994 20.2552 90.994 19.5223V12.6296C90.994 11.795 90.7802 11.124 90.351 10.6222C89.9226 10.1217 89.2788 9.87148 88.4212 9.87148C87.5636 9.87148 86.9238 10.1217 86.5073 10.6236C86.0884 11.124 85.8801 11.7923 85.8801 12.6296V19.5237C85.8801 20.2552 85.6552 20.8244 85.2031 21.2327C84.7517 21.6411 84.1871 21.8446 83.5101 21.8446C82.8101 21.8446 82.2391 21.6411 81.7989 21.2327C81.3578 20.8244 81.1369 20.2565 81.1369 19.5237V2.4769C81.1369 1.74542 81.3578 1.17619 81.7989 0.767823C82.2391 0.359459 82.8085 0.155964 83.5101 0.155964C84.1871 0.155964 84.7517 0.359459 85.2031 0.767823C85.6537 1.17619 85.8801 1.74405 85.8801 2.4769V7.77328H85.9158C86.2982 7.35527 86.8351 6.9799 87.5225 6.64441C88.2114 6.30892 89.0856 6.14255 90.1491 6.14255C91.051 6.14255 91.8532 6.2828 92.5532 6.56604C93.2532 6.84791 93.8407 7.23977 94.3159 7.74165C94.7886 8.24211 95.1449 8.83748 95.3817 9.5263C95.6185 10.2152 95.738 10.9673 95.738 11.784V19.5251C95.738 20.2552 95.5171 20.8244 95.0792 21.2327C94.6397 21.6411 94.0648 21.8433 93.3648 21.8433H93.3664ZM106.914 22C104.994 22 103.414 21.6233 102.172 20.8725C100.929 20.1191 100.073 19.0548 99.5968 17.6757C99.4139 17.1945 99.2816 16.672 99.1898 16.1082C99.0916 15.4344 99.0464 14.754 99.0552 14.0733C99.0552 13.2786 99.0932 12.5939 99.1747 12.0191C99.2531 11.4444 99.383 10.9164 99.5651 10.4366C100.061 9.05611 100.924 7.99738 102.156 7.25489C103.386 6.51242 104.883 6.14255 106.645 6.14255C108.474 6.14255 109.992 6.51379 111.2 7.25489C112.407 7.99601 113.249 9.04511 113.723 10.4036C113.903 10.9467 114.038 11.4953 114.13 12.0494C114.219 12.6035 114.264 13.236 114.264 13.9455C114.264 14.3621 114.13 14.7086 113.857 14.9794C113.587 15.2517 113.203 15.3878 112.707 15.3878H104.003C103.867 15.3878 103.8 15.4497 103.8 15.5748C103.8 15.8471 103.856 16.1385 103.969 16.4534C104.194 17.0996 104.601 17.5905 105.191 17.9246C105.776 18.2601 106.5 18.4279 107.359 18.4279C107.922 18.4279 108.465 18.355 108.984 18.2079C109.488 18.0684 109.976 17.8795 110.441 17.6442C111.006 17.332 111.548 17.1752 112.068 17.1752C112.564 17.1752 112.976 17.3265 113.304 17.629C113.631 17.9329 113.796 18.3247 113.796 18.806C113.796 19.4522 113.481 19.9747 112.846 20.3721C112.041 20.8803 111.169 21.2808 110.255 21.5627C109.313 21.8543 108.2 22 106.914 22ZM109.386 12.4715C109.521 12.4715 109.587 12.411 109.587 12.2845C109.587 12.0343 109.572 11.8253 109.536 11.6589C109.503 11.4904 109.463 11.3229 109.418 11.157C109.257 10.6364 108.9 10.1945 108.418 9.91957C107.933 9.6363 107.351 9.49611 106.674 9.49611C105.998 9.49611 105.421 9.6363 104.948 9.91957C104.475 10.2003 104.125 10.6407 103.965 11.157C103.918 11.322 103.88 11.4911 103.845 11.6575C103.808 11.8644 103.791 12.0744 103.794 12.2845C103.794 12.411 103.86 12.4715 103.997 12.4715H109.386ZM120.089 21.8433C119.389 21.8433 118.818 21.6384 118.377 21.2314C117.936 20.823 117.715 20.2552 117.715 19.5223V8.61884C117.715 7.88738 117.936 7.31815 118.377 6.90978C118.818 6.50279 119.386 6.30067 120.089 6.30067C120.652 6.30067 121.143 6.44642 121.561 6.73791C121.977 7.0294 122.255 7.44877 122.39 7.99184V8.02348H122.424C122.809 7.52164 123.357 7.0844 124.068 6.70766C124.779 6.3323 125.609 6.14392 126.557 6.14392C126.941 6.14392 127.269 6.17142 127.541 6.22368C127.811 6.27593 128.06 6.3543 128.284 6.45879C128.714 6.64579 129.03 6.89741 129.234 7.2109C129.438 7.52714 129.54 7.87092 129.54 8.24628C129.54 8.89384 129.324 9.4273 128.896 9.84394C128.467 10.2619 127.903 10.4723 127.203 10.4723C126.858 10.4646 126.517 10.4114 126.188 10.3142C125.79 10.2079 125.38 10.1552 124.967 10.1575C124.088 10.1575 123.448 10.4338 123.053 10.9879C122.659 11.542 122.46 12.3299 122.46 13.3529V19.5278C122.46 20.2593 122.234 20.8285 121.783 21.2369C121.329 21.6384 120.766 21.8419 120.089 21.8419V21.8433ZM138.649 22C136.73 22 135.149 21.6233 133.907 20.8725C132.666 20.1191 131.808 19.0548 131.332 17.6757C131.145 17.1675 131.008 16.6425 130.925 16.1082C130.828 15.4343 130.782 14.754 130.79 14.0733C130.79 13.2786 130.828 12.5939 130.909 12.0191C130.989 11.4444 131.119 10.9164 131.3 10.4366C131.796 9.05611 132.659 7.99738 133.892 7.25489C135.121 6.51242 136.618 6.14255 138.38 6.14255C140.208 6.14255 141.728 6.51379 142.935 7.25489C144.144 7.99601 144.985 9.04511 145.458 10.4036C145.638 10.9467 145.774 11.4953 145.865 12.0494C145.953 12.6035 146 13.236 146 13.9455C146 14.3621 145.865 14.7086 145.593 14.9794C145.322 15.2517 144.938 15.3878 144.442 15.3878H135.738C135.603 15.3878 135.536 15.4497 135.536 15.5748C135.536 15.8471 135.593 16.1385 135.706 16.4534C135.931 17.0996 136.337 17.5905 136.925 17.9246C137.513 18.2601 138.233 18.4279 139.094 18.4279C139.658 18.4279 140.2 18.355 140.72 18.2079C141.241 18.0621 141.726 17.8751 142.178 17.6442C142.741 17.332 143.283 17.1752 143.803 17.1752C144.298 17.1752 144.712 17.3265 145.039 17.629C145.367 17.9329 145.531 18.3247 145.531 18.806C145.531 19.4522 145.215 19.9747 144.582 20.3721C143.776 20.8806 142.905 21.2811 141.99 21.5627C141.048 21.8543 139.938 22 138.649 22ZM141.123 12.4715C141.259 12.4715 141.326 12.411 141.326 12.2845C141.326 12.0343 141.308 11.8253 141.275 11.6589C141.241 11.4904 141.201 11.3229 141.155 11.157C140.993 10.6367 140.637 10.195 140.156 9.91957C139.671 9.6363 139.087 9.49611 138.412 9.49611C137.737 9.49611 137.158 9.6363 136.685 9.91957C136.213 10.2006 135.863 10.6409 135.701 11.157C135.655 11.322 135.617 11.4911 135.583 11.6575C135.545 11.8644 135.528 12.0744 135.532 12.2845C135.532 12.411 135.599 12.4715 135.733 12.4715H141.123Z" fill="white"/>
<path d="M7.40866 22C6.07555 22 4.8797 21.8585 3.82694 21.5726C2.77564 21.2881 1.89518 20.9467 1.19285 20.5457C0.398533 20.1017 0.631996 19.2383 0.631996 18.5C0.631996 18.0143 0.198494 17.8716 0.598571 17.5247C0.995729 17.1778 1.47611 17.0043 2.03827 17.0043C2.46025 17.0043 2.94064 17.1431 3.47942 17.4165C4.08684 17.7315 4.73076 17.9951 5.40973 18.2074C6.13693 18.4252 6.89597 18.5315 7.65834 18.5225C8.54756 18.5225 9.20757 18.3906 9.64264 18.1284C10.0748 17.8647 10.2924 17.5219 10.2924 17.1015C10.2979 16.9343 10.257 16.7686 10.1737 16.6212C10.0903 16.4738 9.9676 16.3499 9.81791 16.2619C9.50106 16.0621 8.84104 15.9081 7.83499 15.804L5.9748 15.6139C4.1248 15.4251 2.73914 14.9284 1.81341 14.1277C0.88914 13.327 0.427734 12.2612 0.427734 10.9332C0.427734 9.41506 1.03515 8.21333 2.25291 7.32802C3.47066 6.44128 5.20531 6 7.45101 6C8.4118 6 9.33021 6.08465 10.2062 6.25256C11.0389 6.40619 11.8472 6.66131 12.6111 7.01163C13.5719 7.45429 14.0523 8.03576 14.0523 8.75175C14.0523 9.23748 13.877 9.64964 13.5267 9.9854C13.1762 10.3226 12.706 10.492 12.1205 10.492C11.9336 10.492 11.7351 10.4642 11.5219 10.4115C11.2445 10.334 10.9749 10.2337 10.7158 10.1117C9.63059 9.66279 8.45787 9.43626 7.27432 9.44698C6.52674 9.44698 5.98065 9.55804 5.64043 9.78008C5.30168 10.0007 5.13084 10.2908 5.13084 10.6502C5.13084 11.0096 5.28269 11.2885 5.58933 11.4883C5.89304 11.6895 6.52381 11.8324 7.48459 11.9157L9.34628 12.1044C11.3598 12.3153 12.8038 12.8218 13.6828 13.6226C14.5619 14.4246 14.9999 15.4682 14.9999 16.7546C14.9999 18.3365 14.337 19.6063 13.0156 20.5665C11.6869 21.5199 9.82078 22 7.40866 22Z" fill="white"/>
<path fill-rule="evenodd" clip-rule="evenodd" d="M10.8482 11.9849C10.9675 12.0094 11.1029 12.0039 11.2183 11.9697C11.2581 11.958 12.0509 11.6316 12.9802 11.2445C14.2559 10.713 14.6801 10.5328 14.7111 10.5091C14.7781 10.4581 14.8454 10.3883 14.8852 10.3286C14.9308 10.2603 14.9886 10.107 14.997 10.0322C15.0047 9.96431 14.9969 9.85143 14.9795 9.77871C14.9618 9.70456 13.5649 6.4853 13.5046 6.37951C13.363 6.13131 13.0951 5.98362 12.8186 6.00145C12.6371 6.01314 12.4649 6.09384 12.3473 6.22239C12.2819 6.29373 12.2442 6.35971 12.2034 6.47355C12.1656 6.57902 11.4936 7.45281 11.4981 7.54988C11.5043 7.68415 12.1637 6.87558 12.5365 7.73399C12.7331 8.18661 12.8929 8.55924 12.8917 8.56217C12.8906 8.56503 12.2276 8.30393 11.4184 7.98184C9.80685 7.34034 9.90716 7.37723 9.76978 7.37514C9.53879 7.3716 9.32306 7.47752 9.16886 7.67023C9.10858 7.74553 9.03351 7.90769 9.01458 8.00364C8.97868 8.18526 9.00983 8.37469 9.0997 8.52209C9.14238 8.59195 9.22478 8.68212 9.293 8.73333C9.34487 8.77236 9.35375 8.77619 10.0442 9.05677C10.4286 9.21289 11.0979 9.48241 11.5318 9.65568L12.3206 9.9707L11.4982 10.3133C10.9872 10.5261 10.8274 9.81661 10.7981 9.83624C10.6537 9.93295 10.3936 10.8941 10.3315 11.0482C10.2621 11.2208 10.2606 11.3876 10.3272 11.552C10.4165 11.7725 10.6144 11.9369 10.8482 11.9849Z" fill="white"/>
<path fill-rule="evenodd" clip-rule="evenodd" d="M4.63735 16.0462C4.51665 16.0033 4.37468 15.9894 4.24923 16.0082C4.20615 16.0147 3.33117 16.2396 2.30483 16.5081C0.896032 16.8765 0.427122 17.0027 0.391228 17.0229C0.313811 17.0663 0.233235 17.1294 0.182858 17.1857C0.125195 17.2504 0.0419962 17.4018 0.0220704 17.4785C0.00396788 17.5482 -0.00471375 17.667 0.00258356 17.7453C0.0100192 17.8252 0.985636 21.3849 1.03274 21.504C1.14324 21.7833 1.40047 21.9763 1.69125 21.9979C1.88216 22.0122 2.07362 21.9531 2.21545 21.8361C2.29417 21.7713 2.34341 21.708 2.40289 21.5953C2.458 21.4907 2.79254 20.9942 2.80236 20.8923C2.81595 20.7515 2.50413 21.1818 2.24366 20.2326C2.10632 19.7321 1.99531 19.3203 1.99699 19.3175C1.99865 19.3146 2.65068 19.6833 3.44593 20.1369C5.02978 21.0402 4.93079 20.9871 5.07362 21.0093C5.31387 21.0466 5.55447 20.9675 5.74397 20.789C5.81801 20.7193 5.9204 20.5611 5.95446 20.4638C6.01894 20.2797 6.01477 20.0777 5.94305 19.9109C5.90904 19.8319 5.83656 19.7259 5.77315 19.6625C5.72491 19.6144 5.7162 19.609 5.03844 19.2161C4.66119 18.9973 4.00375 18.6189 3.57745 18.3752L2.80236 17.932L3.71061 17.6944C4.27483 17.5469 4.46468 18.1307 4.49818 18.1144C4.6631 18.0347 4.94836 17.2496 5.03604 17.0979C5.13422 16.9282 5.16061 16.7544 5.11574 16.5733C5.05556 16.3305 4.87384 16.1303 4.63735 16.0462Z" fill="white"/>
</g>
<defs>
<clipPath id="clip0_321_5158">
<rect width="146" height="22" fill="white"/>
</clipPath>
</defs>
</svg>
