<svg width="32" height="32" viewBox="0 0 32 32" fill="none" xmlns="http://www.w3.org/2000/svg">
<g clip-path="url(#clip0_12495_38695)">
<mask id="mask0_12495_38695" style="mask-type:luminance" maskUnits="userSpaceOnUse" x="0" y="0" width="32" height="32">
<path d="M32 0H0V32H32V0Z" fill="white"/>
</mask>
<g mask="url(#mask0_12495_38695)">
<path d="M16 30C23.732 30 30 23.732 30 16C30 8.26801 23.732 2 16 2C8.26801 2 2 8.26801 2 16C2 23.732 8.26801 30 16 30Z" fill="white"/>
<path d="M16 0C12.8355 0 9.74204 0.938383 7.11086 2.69649C4.47968 4.45459 2.42893 6.95345 1.21793 9.87706C0.00693202 12.8007 -0.30992 16.0177 0.307442 19.1214C0.924804 22.2251 2.44866 25.0761 4.68629 27.3137C6.92392 29.5513 9.77485 31.0752 12.8785 31.6926C15.9822 32.3099 19.1993 31.9931 22.1229 30.7821C25.0465 29.5711 27.5453 27.5203 29.3034 24.8891C31.0615 22.2579 31.9999 19.1645 31.9999 16C32.006 13.9049 31.5994 11.8292 30.8033 9.8913C30.0072 7.95339 28.8372 6.19127 27.3601 4.70553C25.883 3.21979 24.1278 2.03954 22.1945 1.23216C20.2613 0.424785 18.188 0.00609615 16.0929 0H16ZM16.2711 16.5424L14.6053 22.1598H23.5157C23.5747 22.1577 23.6336 22.1673 23.6889 22.188C23.7442 22.2087 23.7949 22.2401 23.8381 22.2804C23.8812 22.3207 23.916 22.3691 23.9405 22.4229C23.965 22.4766 23.9786 22.5347 23.9806 22.5937V22.7409L23.2058 25.414C23.1716 25.5404 23.0955 25.6515 22.9899 25.7289C22.8843 25.8064 22.7555 25.8456 22.6246 25.8402H8.98789L11.2736 18.0533L8.71669 18.8281L9.2978 17.046L11.8547 16.2712L15.0702 5.34625C15.1056 5.22054 15.182 5.1103 15.2873 5.03307C15.3926 4.95584 15.5208 4.91607 15.6513 4.9201H19.0992C19.1582 4.91803 19.2171 4.92761 19.2724 4.9483C19.3277 4.96899 19.3784 5.00038 19.4216 5.04068C19.4648 5.08098 19.4996 5.12939 19.524 5.18315C19.5485 5.23691 19.5621 5.29497 19.5641 5.35399V5.50121L16.8523 14.7215L19.4091 13.9467L18.8668 15.8063L16.2711 16.5424Z" fill="#345D9D"/>
</g>
</g>
<defs>
<clipPath id="clip0_12495_38695">
<rect width="32" height="32" fill="white"/>
</clipPath>
</defs>
</svg>
