<svg width="38" height="24" viewBox="0 0 38 24" fill="none" xmlns="http://www.w3.org/2000/svg">
<path d="M11.4336 0.000244141C17.7479 0.000408896 22.8662 5.17901 22.8662 11.5667C22.866 17.9541 17.7478 23.1319 11.4336 23.1321C5.11927 23.1321 0.000190786 17.9542 0 11.5667C0 5.1789 5.11915 0.000244141 11.4336 0.000244141Z" fill="#ED0006"/>
<path d="M26.2607 0C32.5752 0 37.6943 5.17866 37.6943 11.5664C37.6941 17.954 32.5751 23.1318 26.2607 23.1318C19.9466 23.1316 14.8283 17.9538 14.8281 11.5664C14.8281 5.17879 19.9465 0.000213549 26.2607 0Z" fill="#0099DF"/>
<path d="M18.8496 2.76587C21.3073 4.88726 22.8671 8.04126 22.8672 11.5657C22.8672 15.0898 21.307 18.2431 18.8496 20.3645C16.3925 18.2431 14.832 15.0897 14.832 11.5657C14.8321 8.04142 16.3921 4.88726 18.8496 2.76587Z" fill="#6C6BBD"/>
</svg>
