<svg width="39" height="24" viewBox="0 0 39 24" fill="none" xmlns="http://www.w3.org/2000/svg">
<path d="M27.1719 0.000244141C33.7042 0.000356238 38.9998 5.35695 39 11.9651C39 18.5734 33.7043 23.9308 27.1719 23.9309C24.2435 23.9309 21.5657 22.8518 19.5 21.0686C17.4343 22.8519 14.7566 23.9309 11.8281 23.9309C5.29572 23.9308 0.000152498 18.5743 0 11.9661C0 5.35771 5.29562 0.00030358 11.8281 0.000244141C14.7563 0.000244141 17.4344 1.0786 19.5 2.86157C21.5656 1.07855 24.2436 0.000244141 27.1719 0.000244141Z" fill="#ED0006"/>
<path d="M27.1719 0C33.7042 0.000112097 38.9998 5.35671 39 11.9648C39 18.5732 33.7043 23.9306 27.1719 23.9307C24.2435 23.9307 21.5657 22.8516 19.5 21.0684C22.0423 18.8737 23.6562 15.6108 23.6562 11.9648C23.6561 8.31887 22.0424 5.05594 19.5 2.86133C21.5656 1.07831 24.2436 0 27.1719 0Z" fill="#F9A000"/>
<path d="M19.4961 2.86108C22.0388 5.05578 23.6523 8.31926 23.6523 11.9656C23.6523 15.6117 22.0386 18.8744 19.4961 21.0691C16.9537 18.8744 15.3399 15.6116 15.3398 11.9656C15.3398 8.31936 16.9535 5.05578 19.4961 2.86108Z" fill="#FF5E00"/>
</svg>
