<svg width="24" height="24" viewBox="0 0 24 24" fill="none" xmlns="http://www.w3.org/2000/svg">
<path d="M23.6408 14.9029C22.0379 21.3315 15.5261 25.2438 9.09602 23.6407C2.66859 22.038 -1.24421 15.5266 0.359461 9.09838C1.96163 2.66907 8.47346 -1.24364 14.9016 0.359095C21.3313 1.96183 25.2437 8.47401 23.6408 14.9029V14.9029Z" fill="black"/>
<path fill-rule="evenodd" clip-rule="evenodd" d="M8.24237 17H15.7839C16.0721 17 16.3123 16.952 16.6005 16.8079C16.9367 16.6638 17.1289 16.4236 17.2249 16.2314C17.2249 16.2314 17.2249 16.1834 17.273 16.1834C17.4171 15.9432 17.5132 15.655 17.5132 15.3188C17.5132 15.0306 17.4651 14.7423 17.273 14.4541L12.5175 6.28817C12.4214 6.09603 12.2293 5.99995 11.9891 5.99995C11.797 5.99995 11.6048 6.09603 11.4607 6.28817L6.80132 14.4541C6.70525 14.6463 6.51311 14.8865 6.51311 15.2707C6.46507 15.607 6.56114 15.8952 6.70525 16.1834C6.84935 16.4716 7.08953 16.7118 7.42577 16.8079C7.71398 17 8.05023 17 8.24237 17ZM11.4127 15.8472H8.24237C8.05023 15.8472 7.95416 15.8472 7.90612 15.7991C7.81005 15.7511 7.76202 15.7031 7.71398 15.607C7.66595 15.5589 7.66595 15.4629 7.66595 15.3668C7.66595 15.3188 7.71398 15.2707 7.81005 15.0786L11.4127 8.83403V15.8472ZM12.5655 15.8472V8.78599L16.2162 15.0786C16.2642 15.1747 16.2642 15.2707 16.2642 15.3668C16.2642 15.4629 16.2642 15.5589 16.2162 15.607C16.1682 15.655 16.1682 15.7031 16.1201 15.7031L16.0721 15.7511C15.976 15.7991 15.88 15.7991 15.7359 15.7991H12.5655V15.8472Z" fill="white"/>
</svg>
