<svg width="24" height="25" viewBox="0 0 24 25" fill="none" xmlns="http://www.w3.org/2000/svg">
<path d="M15.4209 15.8291C15.5779 15.9866 15.6846 16.187 15.7277 16.4051C15.7708 16.6233 15.7483 16.8493 15.6631 17.0546C15.5778 17.2599 15.4336 17.4354 15.2487 17.5588C15.0638 17.6823 14.8464 17.7482 14.6241 17.7482C14.4017 17.7482 14.1844 17.6823 13.9995 17.5588C13.8145 17.4354 13.6703 17.2599 13.5851 17.0546C13.4998 16.8493 13.4773 16.6233 13.5204 16.4051C13.5635 16.187 13.6702 15.9866 13.8272 15.8291C13.9317 15.7242 14.0559 15.641 14.1926 15.5842C14.3294 15.5274 14.476 15.4982 14.6241 15.4982C14.7721 15.4982 14.9187 15.5274 15.0555 15.5842C15.1922 15.641 15.3164 15.7242 15.4209 15.8291ZM7.82719 15.0791C7.67025 15.2366 7.56349 15.437 7.5204 15.6551C7.47731 15.8733 7.49981 16.0993 7.58508 16.3046C7.67034 16.5099 7.81454 16.6854 7.99946 16.8088C8.18438 16.9323 8.40173 16.9982 8.62407 16.9982C8.8464 16.9982 9.06376 16.9323 9.24868 16.8088C9.4336 16.6854 9.57779 16.5099 9.66306 16.3046C9.74832 16.0993 9.77083 15.8733 9.72773 15.6551C9.68464 15.437 9.57788 15.2366 9.42094 15.0791C9.31646 14.9745 9.19239 14.8915 9.05581 14.8349C8.91924 14.7783 8.77285 14.7491 8.625 14.7491C8.47716 14.7491 8.33077 14.7783 8.1942 14.8349C8.05762 14.8915 7.93355 14.9745 7.82907 15.0791H7.82719ZM8.67094 11.4228C8.82788 11.2653 8.93464 11.0649 8.97773 10.8467C9.02083 10.6286 8.99832 10.4026 8.91306 10.1973C8.82779 9.99194 8.6836 9.81647 8.49868 9.69303C8.31376 9.56958 8.0964 9.5037 7.87407 9.5037C7.65173 9.5037 7.43438 9.56958 7.24946 9.69303C7.06454 9.81647 6.92034 9.99194 6.83508 10.1973C6.74981 10.4026 6.72731 10.6286 6.7704 10.8467C6.81349 11.0649 6.92025 11.2653 7.07719 11.4228C7.18183 11.5276 7.30612 11.6106 7.44293 11.6673C7.57975 11.7239 7.72639 11.7529 7.87446 11.7528C8.02252 11.7526 8.1691 11.7232 8.30578 11.6662C8.44245 11.6093 8.56655 11.5259 8.67094 11.4209V11.4228ZM13.1709 11.3291C13.0135 11.1721 12.813 11.0654 12.5949 11.0223C12.3767 10.9792 12.1507 11.0017 11.9454 11.0869C11.7401 11.1722 11.5646 11.3164 11.4412 11.5013C11.3177 11.6862 11.2518 11.9036 11.2518 12.1259C11.2518 12.3483 11.3177 12.5656 11.4412 12.7505C11.5646 12.9355 11.7401 13.0797 11.9454 13.1649C12.1507 13.2502 12.3767 13.2727 12.5949 13.2296C12.813 13.1865 13.0135 13.0798 13.1709 12.9228C13.2758 12.8183 13.359 12.6941 13.4158 12.5574C13.4726 12.4206 13.5018 12.274 13.5018 12.1259C13.5018 11.9779 13.4726 11.8313 13.4158 11.6945C13.359 11.5578 13.2758 11.4336 13.1709 11.3291ZM21.75 12.5C21.75 14.4284 21.1782 16.3134 20.1068 17.9168C19.0355 19.5202 17.5127 20.7699 15.7312 21.5078C13.9496 22.2458 11.9892 22.4389 10.0979 22.0627C8.20656 21.6865 6.46928 20.7579 5.10571 19.3943C3.74215 18.0307 2.81355 16.2934 2.43735 14.4021C2.06114 12.5108 2.25422 10.5504 2.99218 8.76884C3.73013 6.98726 4.97982 5.46451 6.58319 4.39317C8.18657 3.32183 10.0716 2.75 12 2.75C12.1989 2.75 12.3897 2.82902 12.5303 2.96967C12.671 3.11032 12.75 3.30109 12.75 3.5C12.75 4.49456 13.1451 5.44839 13.8484 6.15165C14.5516 6.85491 15.5054 7.25 16.5 7.25C16.6989 7.25 16.8897 7.32902 17.0303 7.46967C17.171 7.61032 17.25 7.80109 17.25 8C17.25 8.99456 17.6451 9.94839 18.3484 10.6517C19.0516 11.3549 20.0054 11.75 21 11.75C21.1989 11.75 21.3897 11.829 21.5303 11.9697C21.671 12.1103 21.75 12.3011 21.75 12.5ZM20.2209 13.1928C19.0977 13.0223 18.0598 12.4929 17.2623 11.6836C16.4649 10.8744 15.9508 9.82878 15.7969 8.70312C14.6712 8.5492 13.6256 8.0351 12.8164 7.23768C12.0071 6.44025 11.4777 5.40233 11.3072 4.27906C9.74009 4.41115 8.24339 4.98839 6.99343 5.94279C5.74348 6.89719 4.79235 8.18897 4.25212 9.66593C3.71189 11.1429 3.60507 12.7435 3.94423 14.2791C4.2834 15.8148 5.05442 17.2215 6.16646 18.3335C7.2785 19.4456 8.68522 20.2166 10.2209 20.5558C11.7565 20.8949 13.3571 20.7881 14.8341 20.2479C16.311 19.7077 17.6028 18.7565 18.5572 17.5066C19.5116 16.2566 20.0889 14.7599 20.2209 13.1928Z" fill="white"/>
</svg>
