<svg width="66" height="17" viewBox="0 0 66 17" fill="none" xmlns="http://www.w3.org/2000/svg">
<g clip-path="url(#clip0_3014_5723)">
<path d="M15.3549 5.88741H11.0084C11.0084 5.21705 10.9247 4.76724 10.7575 4.53797C10.4989 4.19919 9.78538 4.02972 8.61681 4.02954C7.48217 4.02954 6.73093 4.12713 6.3631 4.32232C5.99612 4.51844 5.81253 4.94462 5.81234 5.60086C5.81234 6.19477 5.97521 6.58568 6.30094 6.77359C6.53466 6.90658 6.84357 6.98477 7.22766 7.00813L8.10405 7.06623C9.98286 7.1831 11.1561 7.26535 11.6237 7.31297C13.1094 7.45374 14.1864 7.82502 14.8546 8.4268C15.3803 8.89638 15.6934 9.50997 15.7939 10.2676C15.8558 10.7776 15.8851 11.2907 15.8815 11.8041C15.8815 13.1181 15.7481 14.0799 15.4814 14.6894C14.9978 15.8082 13.9103 16.5157 12.219 16.8118C11.5102 16.9369 10.4265 16.9996 8.96789 16.9998C6.53366 16.9998 4.83767 16.8632 3.87992 16.5899C2.70465 16.2546 1.92951 15.5755 1.5545 14.5527C1.34539 13.983 1.24129 13.0343 1.24219 11.7065H5.58829V12.0462C5.58829 12.7548 5.80472 13.2105 6.23756 13.4132C6.57786 13.5616 6.9488 13.6374 7.32389 13.6354H8.92198C9.73726 13.6354 10.2573 13.5961 10.4821 13.5174C10.8818 13.3699 11.1441 13.1319 11.2692 12.8032C11.3429 12.5473 11.3765 12.2826 11.369 12.0176C11.369 11.2994 11.0904 10.862 10.5333 10.7054C10.3242 10.6436 9.35505 10.5577 7.62593 10.4478C6.23676 10.3545 5.27202 10.2645 4.73172 10.1777C3.3088 9.92753 2.3607 9.41215 1.8874 8.63159C1.47105 7.96785 1.2631 6.96392 1.26358 5.61982C1.26358 4.59703 1.37597 3.77697 1.60076 3.15964C1.82555 2.54232 2.18783 2.07354 2.68759 1.75331C3.42084 1.26103 4.35799 0.972003 5.49904 0.886227C6.44919 0.808402 7.50313 0.769155 8.66086 0.768485C10.4848 0.768485 11.7846 0.866592 12.5602 1.06281C14.4517 1.54047 15.3974 2.8785 15.3974 5.07688C15.3974 5.25715 15.3833 5.52743 15.3551 5.88774M34.4669 17V0.682373H43.1709C44.3647 0.682373 45.275 0.773957 45.9017 0.957126C47.3332 1.37855 48.2945 2.2417 48.7855 3.54658C49.0394 4.23154 49.1665 5.26251 49.1667 6.63949C49.1667 8.29471 49.0267 9.48428 48.7468 10.2082C48.1885 11.6401 47.0409 12.4637 45.3041 12.679C45.1001 12.7113 44.2318 12.7392 42.699 12.7629L41.9237 12.7871H39.1386V17H34.4669ZM39.1389 9.00204H42.0515C42.9749 8.97076 43.5373 8.90333 43.7386 8.79972C44.0146 8.65705 44.2001 8.37084 44.2923 7.94256C44.3515 7.65758 44.381 7.23336 44.381 6.66992C44.381 5.97968 44.3221 5.46773 44.2044 5.13405C44.0364 4.66571 43.6339 4.38011 42.9967 4.27722C42.8704 4.26167 42.5684 4.2537 42.0905 4.25329H39.1393L39.1389 9.00204ZM59.139 14.18H52.8927L52.0533 17H47.2201L52.4358 0.682373H59.4829L64.7623 17H60.0303L59.139 14.18ZM58.2113 11.0013L56.0221 3.92788L53.8978 11.0013H58.2113Z" fill="#10298E"/>
<path d="M28.0172 2.97819C28.9329 2.97778 29.8371 3.16985 30.6636 3.54035C31.4901 3.91086 32.218 4.45041 32.7941 5.11952L33.8011 3.08976C32.1567 1.63093 29.9794 0.82097 27.7184 0.826937C24.0372 0.826937 20.8882 2.91727 19.5962 5.87596H17.6324L16.4727 8.21271H18.9987C18.9787 8.4305 18.9682 8.64878 18.9673 8.86756C18.9674 9.13274 18.9817 9.39776 19.0101 9.6616H17.7408L16.5814 11.999H19.656C20.985 14.8828 24.0946 16.9072 27.718 16.9072C29.4699 16.9112 31.1837 16.4263 32.6422 15.514V12.6495C32.0171 13.3212 31.2349 13.8477 30.357 14.1876C29.4792 14.5275 28.5295 14.6715 27.5824 14.6085C26.6354 14.5455 25.7167 14.2771 24.8986 13.8243C24.0804 13.3716 23.3849 12.7468 22.8667 11.999H29.3044L30.4637 9.6616H21.9196C21.8441 9.1818 21.8319 8.69506 21.8833 8.21244H31.1827L32.3419 5.87596H22.6867C23.2264 4.99552 24.0031 4.26417 24.9389 3.75544C25.8746 3.24672 26.9363 2.97856 28.0173 2.97792" fill="#FFBE00"/>
<path d="M28.0174 3.04803C28.9221 3.04724 29.8155 3.23685 30.6321 3.60297C31.4487 3.96909 32.1678 4.50242 32.7365 5.16383L32.8116 5.25095L32.8625 5.14929L33.8693 3.11946L33.8918 3.07316L33.8531 3.03838C32.3729 1.73469 30.4667 0.940617 28.4451 0.785537C26.4235 0.630457 24.4056 1.12351 22.7202 2.18437C21.2931 3.08166 20.1819 4.35733 19.5276 5.84944L19.5963 5.80595H17.5846L17.5648 5.84616L16.4054 8.18337L16.3555 8.28315H18.999L18.9247 8.20702C18.9046 8.42678 18.8942 8.64703 18.8933 8.86777C18.8933 9.13006 18.9075 9.40012 18.936 9.66898L19.0104 9.59191H17.694L17.6742 9.63212L16.5141 11.9693L16.4648 12.0691H19.6564L19.588 12.0268C20.9739 15.034 24.1655 16.9773 27.7185 16.9773C29.4849 16.9817 31.2129 16.4929 32.6834 15.5728L32.7161 15.5523V12.4635L32.5859 12.6033C31.9683 13.2668 31.1955 13.7868 30.3283 14.1226C29.4611 14.4583 28.5229 14.6006 27.5874 14.5383C26.6518 14.476 25.7443 14.2109 24.9361 13.7637C24.1278 13.3165 23.4407 12.6993 22.9287 11.9606L22.8665 12.0694H29.3523L29.3721 12.0292L30.5315 9.69143L30.5814 9.59198H21.9194L21.9935 9.65229C21.9187 9.17807 21.9066 8.69698 21.9574 8.21996L21.8831 8.28302H31.2305L31.2503 8.24281L32.4094 5.90573L32.4593 5.80595H22.6867L22.7509 5.91129C23.2863 5.04321 24.0541 4.3221 24.9781 3.81975C25.9021 3.31739 26.95 3.05133 28.0174 3.04803ZM22.6867 5.94607H32.3417L32.2739 5.84629L31.1151 8.18337L31.1825 8.14316H21.8156L21.8084 8.20655C21.7575 8.69481 21.7699 9.18709 21.8454 9.67253L21.8553 9.73284H30.4638L30.3964 9.63279L29.2373 11.9699L29.3044 11.9297H22.7281L22.8041 12.0378C23.3289 12.7945 24.0329 13.4267 24.861 13.8848C25.6891 14.3429 26.6188 14.6146 27.5772 14.6784C28.5357 14.7422 29.4969 14.5965 30.3854 14.2527C31.2739 13.9089 32.0657 13.3763 32.6987 12.6967L32.5677 12.6504V15.5149L32.6008 15.457C31.1547 16.3614 29.4557 16.8419 27.7188 16.8378C24.225 16.8378 21.0877 14.9274 19.7255 11.9715L19.7057 11.9296H16.5819L16.65 12.0301L17.8086 9.69129L17.7408 9.73231H19.0931L19.0846 9.65464C19.0565 9.39047 19.0418 9.12523 19.0418 8.8677C19.0418 8.66975 19.0524 8.45718 19.0732 8.21882L19.0799 8.14296H16.4731L16.5402 8.24274L17.6996 5.90566L17.6326 5.94587H19.6459L19.6647 5.90238C20.3084 4.436 21.4008 3.18234 22.8034 2.30036C24.4608 1.25763 26.4449 0.773076 28.4326 0.925606C30.4202 1.07814 32.2944 1.85876 33.75 3.14037L33.7334 3.05956L32.7271 5.08985L32.8527 5.0749C32.2165 4.33703 31.3988 3.75583 30.4702 3.38151C29.5416 3.00718 28.53 2.85099 27.5228 2.92641C26.5156 3.00183 25.5431 3.30659 24.6892 3.81439C23.8354 4.32219 23.1259 5.01775 22.6219 5.841L22.5571 5.94634L22.6867 5.94607Z" fill="#10298E"/>
</g>
<defs>
<clipPath id="clip0_3014_5723">
<rect width="66" height="17" fill="white"/>
</clipPath>
</defs>
</svg>
