<svg width="19" height="18" viewBox="0 0 19 18" fill="none" xmlns="http://www.w3.org/2000/svg">
<path fill-rule="evenodd" clip-rule="evenodd" d="M9.31201 2.17949C8.89779 2.17949 8.56201 2.50185 8.56201 2.89949V10.2795C8.56201 10.5004 8.42191 10.6989 8.20831 10.7809C7.99475 10.8629 7.75068 10.8118 7.59207 10.6518L5.94872 8.99434C5.65179 8.75659 5.21649 8.7985 4.97112 9.10227C4.75765 9.36651 4.75918 9.74674 4.97452 10.0092L4.98114 10.0174L7.442 13.1386C7.45852 13.1595 7.47483 13.1802 7.49094 13.2006C7.87269 13.6845 8.13691 14.0193 8.28429 14.4163C8.29726 14.4514 8.30956 14.4866 8.32111 14.5222C8.45124 14.9238 8.45109 15.3468 8.45086 15.961V16.0395C8.45086 16.3377 8.19901 16.5795 7.88837 16.5795C7.5777 16.5795 7.32587 16.3377 7.32587 16.0395C7.32587 15.3168 7.31999 15.0686 7.24689 14.8431C7.23989 14.8215 7.23244 14.8001 7.22455 14.7788C7.14246 14.5577 6.99421 14.3601 6.54498 13.7904L4.08711 10.6729C3.55561 10.021 3.55335 9.09492 4.08213 8.44037C4.72594 7.6434 5.92071 7.52856 6.70966 8.19823C6.72175 8.20853 6.73338 8.21926 6.74451 8.23049L7.43701 8.92896V2.89949C7.43701 1.90538 8.27649 1.09949 9.31201 1.09949C10.3475 1.09949 11.187 1.90538 11.187 2.89949V6.4977C12.5849 6.54315 14.6138 6.95752 16.1393 8.43137C16.8413 9.10954 16.8829 10.1016 16.7548 10.9225C16.6226 11.7698 16.2848 12.6093 16.0057 13.169C15.925 13.3307 15.8284 13.4969 15.7386 13.6512L15.7293 13.6671C15.6398 13.8206 15.5552 13.966 15.4789 14.1124C15.3166 14.424 15.2309 14.6715 15.2309 14.8745V16.0395C15.2309 16.3377 14.9791 16.5795 14.6684 16.5795C14.3578 16.5795 14.1059 16.3377 14.1059 16.0395V14.8745C14.1059 14.411 14.2918 13.9767 14.4727 13.6294C14.5609 13.4601 14.6571 13.295 14.7434 13.1469L14.7567 13.124C14.8494 12.9649 14.9282 12.8283 14.991 12.7025C15.2423 12.1988 15.5324 11.4665 15.6422 10.7626C15.7561 10.0324 15.6535 9.49416 15.3413 9.19263C13.9004 7.80058 11.8522 7.52763 10.6495 7.57896C10.4961 7.58551 10.3466 7.53159 10.2357 7.42971C10.1248 7.32783 10.062 7.18687 10.062 7.03949V2.89949C10.062 2.50185 9.72624 2.17949 9.31201 2.17949Z" fill="white"/>
<path fill-rule="evenodd" clip-rule="evenodd" d="M15.1936 4.85099C15.0029 5.08642 14.6495 5.12887 14.4042 4.9458C14.3652 4.91666 14.3126 4.8786 14.2506 4.83367C14.0498 4.68827 13.7498 4.47099 13.4876 4.25161C13.314 4.10632 13.1341 3.94173 12.9932 3.77437C12.9224 3.69042 12.8514 3.59399 12.7961 3.48869C12.7427 3.38701 12.687 3.24523 12.687 3.07951C12.687 2.91379 12.7427 2.77201 12.7961 2.67033C12.8514 2.56503 12.9224 2.46861 12.9932 2.38465C13.1341 2.21729 13.314 2.0527 13.4876 1.90741C13.7498 1.68804 14.0498 1.47076 14.2506 1.32535C14.3126 1.28043 14.3652 1.24237 14.4042 1.21322C14.6495 1.03015 15.0029 1.0726 15.1936 1.30804C15.3842 1.54347 15.3401 1.88273 15.0948 2.0658C15.0374 2.10864 14.9708 2.15688 14.8981 2.20959C14.7644 2.30643 14.6099 2.41835 14.4535 2.53951H16.2495C16.5602 2.53951 16.812 2.78128 16.812 3.07951C16.812 3.37775 16.5602 3.61951 16.2495 3.61951H14.4535C14.6099 3.74068 14.7644 3.8526 14.8981 3.94944C14.9708 4.00215 15.0374 4.05039 15.0948 4.09322C15.3401 4.27629 15.3842 4.61556 15.1936 4.85099Z" fill="white"/>
<path fill-rule="evenodd" clip-rule="evenodd" d="M3.80595 1.30804C3.99664 1.0726 4.35004 1.03015 4.59528 1.21322C4.63433 1.24237 4.68689 1.28042 4.74893 1.32535C4.94972 1.47075 5.24979 1.68803 5.51188 1.90741C5.68546 2.0527 5.86542 2.21729 6.00637 2.38465C6.07708 2.46861 6.14806 2.56503 6.20337 2.67033C6.25677 2.77201 6.3125 2.91379 6.3125 3.07951C6.3125 3.24523 6.25677 3.38701 6.20337 3.48869C6.14806 3.59399 6.07708 3.69042 6.00637 3.77437C5.86542 3.94173 5.68546 4.10632 5.51188 4.25161C5.24979 4.47099 4.94972 4.68827 4.74893 4.83367C4.68689 4.8786 4.63433 4.91666 4.59528 4.9458C4.35004 5.12887 3.99664 5.08642 3.80595 4.85099C3.61525 4.61556 3.65946 4.27629 3.90471 4.09322C3.9621 4.05039 4.02869 4.00215 4.10145 3.94944C4.23514 3.8526 4.38964 3.74068 4.54606 3.61951H2.75C2.43934 3.61951 2.1875 3.37775 2.1875 3.07951C2.1875 2.78128 2.43934 2.53951 2.75 2.53951H4.54606C4.38964 2.41835 4.23514 2.30643 4.10145 2.20959C4.02869 2.15688 3.9621 2.10864 3.90471 2.0658C3.65947 1.88273 3.61525 1.54347 3.80595 1.30804Z" fill="white"/>
</svg>
