<svg width="24" height="24" viewBox="0 0 24 24" fill="none" xmlns="http://www.w3.org/2000/svg">
<path d="M23.6408 14.9029C22.0379 21.3315 15.5261 25.2438 9.09602 23.6407C2.66859 22.038 -1.24421 15.5266 0.359461 9.09838C1.96163 2.66907 8.47346 -1.24364 14.9016 0.359095C21.3313 1.96183 25.2437 8.47401 23.6408 14.9029V14.9029Z" fill="#0088CC"/>
<path fill-rule="evenodd" clip-rule="evenodd" d="M7.90022 7H16.1273C16.4417 7 16.7037 7.0524 17.0181 7.20961C17.3849 7.36681 17.5945 7.62882 17.6993 7.83843C17.6993 7.83843 17.6993 7.89083 17.7517 7.89083C17.9089 8.15284 18.0138 8.46725 18.0138 8.83406C18.0138 9.14847 17.9614 9.46288 17.7517 9.77729L12.564 18.6856C12.4592 18.8952 12.2496 19 11.9876 19C11.7779 19 11.5683 18.8952 11.4111 18.6856L6.32816 9.77729C6.22336 9.56769 6.01375 9.30568 6.01375 8.88646C5.96135 8.51965 6.06615 8.20524 6.22336 7.89083C6.38057 7.57642 6.64257 7.31441 7.00939 7.20961C7.3238 7 7.69061 7 7.90022 7ZM11.3587 8.25764H7.90022C7.69061 8.25764 7.58581 8.25764 7.5334 8.31004C7.4286 8.36245 7.3762 8.41485 7.3238 8.51965C7.2714 8.57205 7.2714 8.67686 7.2714 8.78166C7.2714 8.83406 7.3238 8.88646 7.4286 9.09607L11.3587 15.9083V8.25764ZM12.6164 8.25764V15.9607L16.5989 9.09607C16.6513 8.99127 16.6513 8.88646 16.6513 8.78166C16.6513 8.67686 16.6513 8.57205 16.5989 8.51965C16.5465 8.46725 16.5465 8.41485 16.4941 8.41485L16.4417 8.36245C16.3369 8.31004 16.2321 8.31004 16.0749 8.31004H12.6164V8.25764Z" fill="white"/>
</svg>
