<svg width="32" height="32" viewBox="0 0 32 32" fill="none" xmlns="http://www.w3.org/2000/svg">
<circle cx="16" cy="16" r="16" fill="#FF060A"/>
<path d="M24.7552 13.0252C23.8674 12.1596 22.6394 10.8377 21.6391 9.90023L21.58 9.85648C21.4815 9.77297 21.3705 9.70748 21.2515 9.66273C18.8397 9.18774 7.61551 6.97214 7.39653 7.00027C7.33517 7.00934 7.27652 7.03283 7.2249 7.06901L7.16867 7.11589C7.09944 7.19014 7.04686 7.27984 7.0148 7.37839L7 7.41901V7.64088V7.67526C8.26358 11.3908 13.2528 23.5625 14.2352 26.4188C14.2944 26.6125 14.4069 26.9813 14.617 27H14.6643C14.7768 27 15.2562 26.3313 15.2562 26.3313C15.2562 26.3313 23.826 15.3564 24.693 14.1877C24.8053 14.0437 24.9043 13.8889 24.989 13.7252C25.0105 13.5971 25.0004 13.4653 24.9594 13.3427C24.9184 13.22 24.8481 13.1106 24.7552 13.0252ZM17.4548 14.3033L21.1124 11.1002L23.2578 13.1877L17.4548 14.3033ZM16.0344 14.0939L9.73726 8.64399L19.9258 10.6283L16.0344 14.0939ZM16.6026 15.522L23.0477 14.4252L15.6793 23.8L16.6026 15.522ZM8.88205 9.18774L15.5077 15.1252L14.5489 23.8063L8.88205 9.18774Z" fill="white"/>
</svg>
