<svg width="32" height="32" viewBox="0 0 32 32" fill="none" xmlns="http://www.w3.org/2000/svg">
<g clip-path="url(#clip0_1909_32981)">
<path d="M16 32C24.8366 32 32 24.8366 32 16C32 7.16344 24.8366 0 16 0C7.16344 0 0 7.16344 0 16C0 24.8366 7.16344 32 16 32Z" fill="#50AF95"/>
<path fill-rule="evenodd" clip-rule="evenodd" d="M17.7295 16.6384C17.6329 16.6463 17.1338 16.6786 16.0205 16.6786C15.1351 16.6786 14.5064 16.6497 14.2858 16.6384C10.8639 16.475 8.30979 15.8283 8.30979 15.054C8.30979 14.2797 10.8639 13.6339 14.2858 13.4679V15.9943C14.5096 16.0118 15.1504 16.0529 16.0358 16.0529C17.0984 16.0529 17.6305 16.0048 17.7262 15.9952V13.4696C21.1409 13.6348 23.6894 14.2815 23.6894 15.054C23.6894 15.8265 21.1417 16.4732 17.7262 16.6375L17.7295 16.6384ZM17.7295 13.2083V10.9475H22.4948V7.5H9.52046V10.9475H14.285V13.2074C10.4123 13.4006 7.5 14.2334 7.5 15.2314C7.5 16.2294 10.4123 17.0614 14.285 17.2554V24.5H17.7287V17.2527C21.5925 17.0596 24.5 16.2277 24.5 15.2305C24.5 14.2334 21.5949 13.4015 17.7287 13.2074L17.7295 13.2083Z" fill="white"/>
</g>
<defs>
<clipPath id="clip0_1909_32981">
<rect width="32" height="32" fill="white"/>
</clipPath>
</defs>
</svg>
