<svg width="41" height="14" viewBox="0 0 41 14" fill="none" xmlns="http://www.w3.org/2000/svg">
<path d="M20.1583 0.235511L17.4383 13.1309H14.1483L16.8686 0.235511H20.1583ZM33.9988 8.56221L35.7304 3.71974L36.7268 8.56221H33.9988ZM37.6706 13.1309H40.7126L38.055 0.235511H35.249C34.6166 0.235511 34.0835 0.607339 33.8475 1.18074L28.9113 13.1309H32.3663L33.0522 11.205H37.2722L37.6706 13.1309ZM29.0826 8.92099C29.0969 5.51768 24.4433 5.32916 24.4744 3.80849C24.4844 3.34646 24.9192 2.85426 25.8693 2.72839C26.3404 2.6669 27.6403 2.61701 29.1138 3.30556L29.6901 0.569925C28.8987 0.279597 27.8802 0 26.6129 0C23.3607 0 21.0729 1.75183 21.0546 4.2624C21.0337 6.11893 22.6889 7.15408 23.9333 7.77244C25.2163 8.40443 25.6462 8.80961 25.6399 9.37431C25.6311 10.2395 24.6169 10.6226 23.6725 10.6371C22.0176 10.6632 21.0583 10.1835 20.2938 9.82213L19.6966 12.6491C20.4666 13.0065 21.8852 13.3174 23.3541 13.3333C26.8117 13.3333 29.0723 11.6021 29.0826 8.92099ZM15.4574 0.235511L10.127 13.1309H6.65002L4.02673 2.83947C3.86771 2.20661 3.729 1.974 3.24535 1.70658C2.45425 1.27095 1.14833 0.863443 0 0.60995L0.0777956 0.235511H5.67558C6.3886 0.235511 7.03012 0.716683 7.19343 1.54967L8.57915 9.01235L12.0013 0.235511H15.4574Z" fill="#172B85"/>
</svg>
