<svg width="32" height="32" viewBox="0 0 32 32" fill="none" xmlns="http://www.w3.org/2000/svg">
<circle cx="16" cy="16" r="15.5" fill="white" stroke="black"/>
<path d="M23.1772 10.0935L20.769 11.2534L9.14013 16.853C9.1008 16.5695 9.08102 16.2838 9.08089 15.9979C9.08248 14.8569 9.39935 13.7361 10.0001 12.7466C10.6009 11.757 11.4647 10.9329 12.5059 10.3561C13.5472 9.77922 14.7298 9.46953 15.9367 9.45771C17.1435 9.44589 18.3327 9.73233 19.3864 10.2887L20.7648 9.62472L20.9704 9.52552C19.7077 8.6591 18.2162 8.13959 16.6607 8.02442C15.1052 7.90926 13.5463 8.20292 12.1563 8.87294C10.7663 9.54297 9.59934 10.5633 8.78437 11.8211C7.9694 13.0789 7.53817 14.5253 7.53833 16.0003C7.53833 16.204 7.54651 16.4069 7.56287 16.609C7.58578 16.8953 7.51863 17.1815 7.36988 17.4317C7.22112 17.682 6.99739 17.885 6.72686 18.0153L6 18.3657V20L8.13996 18.9689L8.83297 18.6345L9.51582 18.3057L21.7751 12.4005L23.1526 11.7374L26 10.3655V8.73198L23.1772 10.0935Z" fill="black"/>
<path d="M26 12L10.2122 19.6016L8.83466 20.2666L6 21.6325V23.2656L8.8152 21.9093L11.2234 20.7491L22.8641 15.1399C22.9035 15.4254 22.9232 15.713 22.9233 16.0009C22.9226 17.1435 22.6058 18.266 22.0045 19.2571C21.4031 20.2482 20.5381 21.0733 19.4954 21.6505C18.4526 22.2277 17.2683 22.5369 16.06 22.5475C14.8518 22.5581 13.6616 22.2697 12.6077 21.7109L12.5231 21.7533L11.0288 22.4735C12.2912 23.3402 13.7824 23.86 15.3377 23.9754C16.8929 24.0909 18.4516 23.7976 19.8416 23.1278C21.2316 22.458 22.3988 21.4379 23.2141 20.1802C24.0294 18.9225 24.4612 17.4761 24.4617 16.0009C24.4617 15.7952 24.4532 15.5896 24.4371 15.3863C24.4143 15.1001 24.4813 14.8139 24.6299 14.5636C24.7785 14.3134 25.002 14.1102 25.2723 13.9796L26 13.6292V12Z" fill="black"/>
</svg>
