<svg width="32" height="32" viewBox="0 0 32 32" fill="none" xmlns="http://www.w3.org/2000/svg">
<circle cx="16" cy="16" r="16" fill="#23292F"/>
<path d="M22.3885 8H25L19.5653 13.5055C17.5972 15.4982 14.4063 15.4982 12.4368 13.5055L7 8H9.61357L13.7425 12.1822C14.3441 12.7888 15.1548 13.1289 15.9995 13.1289C16.8441 13.1289 17.6549 12.7888 18.2564 12.1822L22.3885 8Z" fill="white"/>
<path d="M9.60332 24H7L12.4492 18.4873C14.4099 16.5042 17.5887 16.5042 19.5508 18.4873L25 24H22.3984L18.25 19.8042C17.6507 19.2005 16.843 18.8621 16.0016 18.8621C15.1601 18.8621 14.3525 19.2005 13.7532 19.8042L9.60332 24Z" fill="white"/>
</svg>
